<svg xmlns="http://www.w3.org/2000/svg" xmlns:svg="http://www.w3.org/2000/svg" id="svg4136" width="512" height="512" version="1.1" viewBox="0 0 512 512"><metadata id="metadata4144"/><rect style="opacity:1;fill:red;fill-opacity:1;stroke:none;stroke-width:5;stroke-linecap:butt;stroke-linejoin:miter;stroke-miterlimit:4;stroke-dasharray:none;stroke-opacity:.63999999" id="rect4324" width="255.294" height="5.824" x="51.056" y="144.232"/><g id="g4172" transform="matrix(6.9692534,0,0,6.9692534,65.851763,-9.6840288)" style="opacity:.5"><rect id="rect4146" width="16.016" height="15.56" x="2.409" y="10.286" style="opacity:1;fill:#f0f;fill-opacity:1;stroke:none;stroke-width:5;stroke-linecap:butt;stroke-linejoin:miter;stroke-miterlimit:4;stroke-dasharray:none;stroke-opacity:.63999999"/><g id="g4165" style="opacity:.5"><rect style="opacity:1;fill:#00f;fill-opacity:1;stroke:none;stroke-width:5;stroke-linecap:butt;stroke-linejoin:miter;stroke-miterlimit:4;stroke-dasharray:none;stroke-opacity:.63999999" id="rect4148" width="17.448" height="15.82" x="6.706" y="15.299"/><g id="g4160" style="opacity:1"><rect id="rect4150" width="16.341" height="15.69" x="12.956" y="20.833" style="opacity:1;fill:#0f0;fill-opacity:1;stroke:none;stroke-width:5;stroke-linecap:butt;stroke-linejoin:miter;stroke-miterlimit:4;stroke-dasharray:none;stroke-opacity:.63999999"/><g id="g4157" style="opacity:.5"><rect style="opacity:.5;fill:red;fill-opacity:1;stroke:none;stroke-width:5;stroke-linecap:butt;stroke-linejoin:miter;stroke-miterlimit:4;stroke-dasharray:none;stroke-opacity:.63999999" id="rect4152" width="16.992" height="16.992" x="17.122" y="24.74"/></g></g></g></g><rect style="opacity:.06300001;fill:red;fill-opacity:1;stroke:none;stroke-width:5;stroke-linecap:butt;stroke-linejoin:miter;stroke-miterlimit:4;stroke-dasharray:none" id="rect4152-1" width="118.423" height="118.423" x="333.63" y="67.418"/><g id="g4219" transform="matrix(6.9692534,0,0,6.9692534,134.23692,-43.566122)" style="opacity:.5"><rect id="rect4217" width="8.984" height="8.529" x="27.995" y="37.435" style="opacity:.5;fill:olive;fill-opacity:.49803922;stroke:none;stroke-width:5;stroke-linecap:butt;stroke-linejoin:miter;stroke-miterlimit:4;stroke-dasharray:none;stroke-opacity:.63999999"/></g><rect style="opacity:.125;fill:olive;fill-opacity:1;stroke:none;stroke-width:5;stroke-linecap:butt;stroke-linejoin:miter;stroke-miterlimit:4;stroke-dasharray:none;stroke-opacity:.63999999" id="rect4217-8" width="62.614" height="59.438" x="408.929" y="217.554"/><rect id="rect4370" width="424.76" height="63.714" x="46.577" y="368.766" style="fill:#00f"/><circle id="circle4372" cx="89.052" cy="368.766" r="21.238" style="opacity:1;fill:red"/><circle id="circle4374" cx="174.004" cy="368.766" r="21.238" style="opacity:.8;fill:red"/><circle id="circle4376" cx="258.956" cy="368.766" r="21.238" style="opacity:.6;fill:red"/><circle id="circle4378" cx="343.908" cy="368.766" r="21.238" style="opacity:.4;fill:red"/><circle id="circle4380" cx="428.86" cy="368.766" r="21.238" style="opacity:.2;fill:red"/><g id="g4382" transform="matrix(0.42475978,0,0,0.42475978,4.1005233,326.28998)" style="opacity:1"><circle id="circle4384" cx="182.5" cy="250" r="50" style="opacity:1;fill:red"/><circle id="circle4386" cx="217.5" cy="250" r="50" style="opacity:1;fill:green"/></g><g id="g4388" transform="matrix(0.42475978,0,0,0.42475978,4.1005233,326.28998)" style="opacity:.5"><circle id="circle4390" cx="382.5" cy="250" r="50" style="opacity:1;fill:red"/><circle id="circle4392" cx="417.5" cy="250" r="50" style="opacity:1;fill:green"/></g><g id="g4394" transform="matrix(0.42475978,0,0,0.42475978,4.1005233,326.28998)" style="opacity:1"><circle id="circle4396" cx="582.5" cy="250" r="50" style="opacity:.5;fill:red"/><circle id="circle4398" cx="617.5" cy="250" r="50" style="opacity:.5;fill:green"/></g><g id="g4400" transform="matrix(0.42475978,0,0,0.42475978,4.1005233,326.28998)" style="opacity:1"><circle id="circle4402" cx="817.5" cy="250" r="50" style="opacity:.5;fill:green"/><circle id="circle4404" cx="782.5" cy="250" r="50" style="opacity:.5;fill:red"/></g><g id="g4406" transform="matrix(0.42475978,0,0,0.42475978,4.1005233,326.28998)" style="opacity:.5"><circle id="circle4408" cx="982.5" cy="250" r="50" style="opacity:.5;fill:red"/><circle id="circle4410" cx="1017.5" cy="250" r="50" style="opacity:.5;fill:green"/></g></svg>